<?xml version="1.0" standalone="no"?>
<!DOCTYPE svg PUBLIC "-//W3C//DTD SVG 20010904//EN"
 "http://www.w3.org/TR/2001/REC-SVG-20010904/DTD/svg10.dtd">
<svg version="1.0" xmlns="http://www.w3.org/2000/svg"
 width="512.000000pt" height="512.000000pt" viewBox="0 0 512.000000 512.000000"
 preserveAspectRatio="xMidYMid meet">
<metadata>
Created by potrace 1.14, written by Peter Selinger 2001-2017
</metadata>
<g transform="translate(0.000000,512.000000) scale(0.100000,-0.100000)"
fill="#000000" stroke="none">
<path d="M0 2560 l0 -2560 2560 0 2560 0 0 2560 0 2560 -2560 0 -2560 0 0
-2560z m3036 1979 c184 -98 205 -118 237 -221 14 -46 28 -95 31 -110 l6 -28
105 0 104 0 27 -35 c24 -31 26 -40 20 -88 -5 -34 -2 -72 8 -109 16 -61 10
-110 -18 -149 -9 -13 -16 -40 -16 -61 0 -42 -23 -157 -45 -226 -8 -26 -23 -98
-34 -160 -10 -62 -20 -115 -23 -118 -3 -2 -17 1 -32 7 -14 7 -29 10 -32 7 -3
-3 0 -190 7 -414 11 -402 7 -1704 -8 -2216 l-6 -228 -664 0 -665 0 6 28 c24
108 46 270 46 337 0 51 7 105 21 150 33 113 36 270 9 465 -24 179 -28 190
-123 348 -30 49 -56 96 -60 105 -3 8 -15 86 -27 172 l-22 157 32 95 c50 146
34 203 -99 359 -28 32 -67 89 -86 126 -20 37 -51 88 -70 112 -51 67 -61 91
-84 205 -20 100 -42 444 -38 596 1 43 -5 74 -20 110 -61 138 -140 341 -136
348 2 4 17 7 34 7 16 0 29 2 29 4 0 2 -11 28 -24 57 -21 48 -25 74 -30 239
l-7 185 306 -3 305 -2 70 -45 c53 -34 86 -47 138 -56 68 -11 69 -11 95 15 28
28 74 34 121 16 18 -7 33 -5 53 5 15 8 37 15 48 15 11 0 43 7 70 16 38 12 217
43 299 53 5 1 69 -31 142 -70z"/>
<path d="M2780 4509 c-85 -11 -237 -47 -277 -67 -27 -13 -39 -14 -85 -4 -56
13 -59 12 -88 -37 -7 -12 -22 -12 -111 3 -90 15 -113 23 -175 61 l-72 45 -248
0 -249 0 3 -132 2 -133 49 -97 c52 -102 51 -108 -5 -108 -13 0 -24 -2 -24 -4
0 -8 112 -291 126 -319 12 -23 13 -38 5 -78 -17 -79 4 -452 32 -581 19 -87 30
-113 64 -158 22 -30 59 -87 81 -127 22 -40 63 -99 91 -133 28 -33 56 -71 62
-83 6 -12 21 -32 33 -45 14 -16 24 -47 32 -100 11 -74 10 -81 -17 -159 -33
-94 -35 -127 -13 -283 16 -113 16 -114 96 -254 l81 -140 24 -160 c21 -135 24
-186 20 -316 -3 -109 -10 -168 -21 -199 -9 -26 -21 -104 -26 -180 -6 -75 -14
-156 -20 -181 -5 -25 -9 -51 -10 -57 0 -10 121 -13 574 -13 l573 0 6 298 c16
709 19 1568 8 2002 -6 250 -14 469 -16 486 -5 28 -1 34 43 65 48 32 49 35 65
114 9 44 26 114 37 155 11 41 24 109 29 152 5 42 16 87 25 99 19 28 20 57 2
123 -8 29 -10 65 -6 88 4 21 4 41 -1 44 -5 3 -60 4 -121 3 l-113 -2 -26 106
c-38 155 -42 162 -118 206 -112 65 -209 111 -233 110 -13 -1 -52 -5 -88 -10z"/>
</g>
</svg>
